HIERARCHY
ROOT hip
{
	OFFSET 0.000000 0.000000 0.000000 
	CHANNELS 6 Xposition Yposition Zposition Xrotation Zrotation Yrotation
	JOINT abdomen
	{
		OFFSET 0.000000 3.402643 0.000000 
		CHANNELS 3 Xrotation Zrotation Yrotation
		JOINT chest
		{
			OFFSET 0.000000 8.438565 -0.680529 
			CHANNELS 3 Xrotation Zrotation Yrotation
			JOINT neck
			{
				OFFSET 0.000000 10.207942 -0.272212 
				CHANNELS 3 Xrotation Zrotation Yrotation
				JOINT head
				{
					OFFSET 0.000000 3.130431 0.000000 
					CHANNELS 3 Xrotation Zrotation Yrotation
					End Site
					{
						OFFSET 0.000000 3.130435 0.000000 
					}
				}
			}
			JOINT lCollar
			{
				OFFSET 3.470700 6.669187 -0.816635 
				CHANNELS 3 Yrotation Zrotation Xrotation
				JOINT lShldr
				{
					OFFSET 3.198488 0.000000 0.000000 
					CHANNELS 3 Zrotation Yrotation Xrotation
					JOINT lForeArm
					{
						OFFSET 10.139888 0.000000 0.000000 
						CHANNELS 3 Yrotation Zrotation Xrotation
						JOINT lHand
						{
							OFFSET 8.370511 0.000000 0.000000 
							CHANNELS 3 Zrotation Yrotation Xrotation
							End Site
							{
								OFFSET 4.083176 0.000000 0.000000 
							}
						}
					}
				}
			}
			JOINT rCollar
			{
				OFFSET -3.470700 6.669187 -0.816635 
				CHANNELS 3 Yrotation Zrotation Xrotation
				JOINT rShldr
				{
					OFFSET -3.198488 0.000000 0.000000 
					CHANNELS 3 Zrotation Yrotation Xrotation
					JOINT rForeArm
					{
						OFFSET -10.139888 0.000000 0.000000 
						CHANNELS 3 Yrotation Zrotation Xrotation
						JOINT rHand
						{
							OFFSET -8.370511 0.000000 0.000000 
							CHANNELS 3 Zrotation Yrotation Xrotation
							End Site
							{
								OFFSET -4.083176 0.000000 0.000000 
							}
						}
					}
				}
			}
		}
	}
	JOINT lThigh
	{
		OFFSET 5.308129 -1.633274 1.361059 
		CHANNELS 3 Xrotation Zrotation Yrotation
		JOINT lShin
		{
			OFFSET -2.041588 -20.007561 0.000000 
			CHANNELS 3 Xrotation Zrotation Yrotation
			JOINT lFoot
			{
				OFFSET 0.000000 -19.190928 -1.224953 
				CHANNELS 3 Xrotation Yrotation Zrotation
				End Site
				{
					OFFSET 0.000000 -2.449906 4.627600 
				}
			}
		}
	}
	JOINT rThigh
	{
		OFFSET -5.308129 -1.633274 1.361059 
		CHANNELS 3 Xrotation Zrotation Yrotation
		JOINT rShin
		{
			OFFSET 2.041588 -20.007561 0.000000 
			CHANNELS 3 Xrotation Zrotation Yrotation
			JOINT rFoot
			{
				OFFSET 0.000000 -19.190928 -1.224953 
				CHANNELS 3 Xrotation Yrotation Zrotation
				End Site
				{
					OFFSET 0.000000 -2.449906 4.627600 
				}
			}
		}
	}
}
MOTION
Frames: 11
Frame Time: 0.016667
-0.556755 50.917057 -0.299365 -4.712463 -5.532961 5.307480 0.000000 0.000000 0.000000 -4.588797 3.494327 -8.726758 2.000518 3.914849 -7.135779 26.058292 -4.451744 -1.430575 13.600832 12.509048 24.642675 -87.741547 -30.719574 52.470814 -7.042608 -8.273459 8.410561 -14.529091 -7.771630 0.377188 -19.486898 -1.591088 15.996434 82.956856 17.640530 24.813709 1.091611 -7.251961 16.411987 -1.647876 3.506088 -1.436239 3.902639 8.663442 -3.096044 41.952068 -1.297543 -9.874286 -2.904584 -0.218553 -0.268564 0.822646 3.695478 -17.040020 0.591936 2.395292 16.652241 0.622596 5.140173 -0.145040 
-0.609522 50.903957 0.233710 -4.666550 -5.891033 5.487198 0.000000 0.000000 0.000000 -4.949651 3.839580 -8.945473 2.176486 4.002229 -7.116968 26.062817 -4.539548 -1.459788 13.547776 12.852670 24.298138 -87.943520 -30.497805 53.288960 -7.213552 -8.030879 8.597920 -15.699376 -8.045453 0.575260 -19.572763 -1.620626 15.608624 82.950867 17.250103 23.905369 0.912310 -7.415689 16.387880 -1.810800 3.464114 -1.406242 2.070314 9.176350 -2.949843 44.997475 -1.116468 -10.076720 -0.243133 -0.165456 -0.972536 1.592269 4.193969 -17.729160 0.158689 2.362004 17.166294 0.149714 5.106155 -0.147739 
-0.656865 50.871048 0.710375 -4.448080 -6.353768 5.846061 0.000000 0.000000 0.000000 -5.301651 4.280420 -9.195145 2.177636 3.915016 -7.116295 25.978502 -4.617608 -1.480042 13.564548 12.866953 24.099422 -87.856949 -30.538076 53.627705 -7.387371 -7.862596 8.678345 -15.421045 -7.956604 0.501569 -19.653111 -1.653561 15.434267 83.008614 17.409159 23.575943 0.650888 -7.519032 16.261658 -1.897517 3.433002 -1.400882 -0.379966 9.668223 -3.658880 48.242020 -0.872470 -10.400410 2.687306 -0.221658 -3.131978 1.680746 4.669481 -18.198776 0.556895 2.448060 17.616449 -0.618364 5.034954 -0.423666 
-0.704204 50.838142 1.187013 -4.235358 -6.825506 6.195617 0.000000 0.000000 0.000000 -5.645343 4.711063 -9.436400 2.176915 3.837411 -7.125377 25.894495 -4.705427 -1.499518 13.585646 12.872344 23.900730 -87.779243 -30.561760 53.971756 -7.560198 -7.704502 8.758728 -15.152840 -7.876582 0.431293 -19.734110 -1.682739 15.250882 83.067062 17.569059 23.246861 0.375538 -7.614630 16.125408 -1.974697 3.411911 -1.395171 -2.819339 10.119130 -4.359924 51.484982 -0.599274 -10.698133 5.611821 -0.413707 -5.270660 1.749171 5.149094 -18.679066 0.958857 2.537151 18.067133 -1.367579 4.959604 -0.693941 
-0.739438 50.800774 1.510030 -3.994994 -7.115571 6.288756 0.000000 0.000000 0.000000 -5.745066 5.154781 -9.403352 1.909118 3.750755 -7.055883 25.721840 -4.793266 -1.509254 13.635794 12.813751 24.154194 -87.875343 -31.089468 53.951389 -7.737504 -7.453948 8.935006 -15.152840 -7.876582 0.431293 -19.647028 -1.739749 15.396502 83.058441 18.103540 22.738426 0.199682 -7.613513 16.104136 -1.811391 3.463805 -1.415985 -5.493223 10.266516 -5.283953 54.024746 -0.454842 -11.268703 9.278746 -0.179827 -7.944055 1.837431 5.537019 -19.164612 1.527738 2.458602 18.451410 -2.195109 4.971882 -0.750163 
-0.774669 50.763405 1.833040 -3.765342 -7.405517 6.380855 0.000000 0.000000 0.000000 -5.832919 5.588954 -9.370841 1.649060 3.673684 -6.996786 25.539452 -4.881105 -1.519814 13.686785 12.755877 24.407578 -87.972618 -31.617329 53.932869 -7.913677 -7.215583 9.120836 -15.152840 -7.876582 0.431293 -19.571503 -1.792812 15.550189 83.040771 18.643248 22.236549 0.022504 -7.612280 16.073044 -1.647876 3.506088 -1.436239 -8.166699 10.373779 -6.212470 56.563179 -0.277916 -11.837459 12.927455 -0.088439 -10.635634 1.913748 5.927200 -19.661331 2.088429 2.367962 18.834360 -2.994763 4.968417 -0.802823 
-0.773932 50.733086 2.230283 -3.700433 -7.675936 6.473068 0.000000 0.000000 0.000000 -5.576427 6.035029 -9.211623 1.379702 3.663142 -7.103984 25.283298 -4.890933 -1.490625 13.782213 12.734685 24.702229 -88.184296 -32.650871 53.452583 -7.825833 -7.139226 9.228460 -14.776729 -7.853389 0.363562 -19.605682 -1.757423 15.898728 82.910423 19.507317 22.610832 0.022504 -7.612280 16.073044 -1.724442 3.485197 -1.420974 -10.554926 10.604194 -6.699980 58.704853 0.042563 -12.465194 15.695881 0.142790 -12.383024 2.090520 6.098709 -19.899498 2.573127 2.536201 19.134094 -3.599628 5.061640 -1.119724 
-0.773198 50.702763 2.627506 -3.646175 -7.946238 6.566740 0.000000 0.000000 0.000000 -5.314792 6.471992 -9.042223 1.120148 3.652592 -7.211808 25.018206 -4.900738 -1.470333 13.882544 12.706014 24.996525 -88.379822 -33.700153 52.969738 -7.727044 -7.070625 9.336357 -14.400672 -7.829643 0.294816 -19.631689 -1.719797 16.247906 82.788208 20.379841 22.990601 0.022504 -7.612280 16.073044 -1.810800 3.464114 -1.406242 -12.943211 10.806760 -7.196554 60.863514 0.412115 -13.081487 18.466154 0.290296 -14.117409 2.266050 6.263709 -20.109444 3.069045 2.713786 19.426163 -4.220617 5.144481 -1.429774 
-0.779442 50.692017 2.782970 -3.403376 -8.151397 6.481078 0.000000 0.000000 0.000000 -5.234567 6.822112 -8.891562 0.938373 3.662909 -7.133220 24.838520 -4.900585 -1.539276 13.943852 12.575598 24.992958 -88.456825 -34.134834 53.044563 -7.825794 -7.151428 9.306244 -14.314407 -7.796883 0.294307 -19.515547 -1.644951 16.316280 82.561035 20.910578 23.409252 0.026957 -7.702102 16.065876 -1.724442 3.485197 -1.420974 -15.048334 10.898162 -7.164840 62.993904 0.511070 -12.422545 17.820282 0.168696 -12.661809 2.705560 6.594405 -20.047192 2.619117 2.635592 19.654100 -4.436653 4.985056 -1.700926 
-0.785683 50.681267 2.938454 -3.158862 -8.346900 6.395494 0.000000 0.000000 0.000000 -5.151263 7.172659 -8.730364 0.755999 3.673144 -7.065002 24.659946 -4.910162 -1.617951 14.016302 12.442809 24.995457 -88.541290 -34.571323 53.131294 -7.912153 -7.241546 9.285962 -14.228189 -7.773603 0.296314 -19.393007 -1.557741 16.385660 82.334320 21.444654 23.824457 0.023335 -7.794600 16.069687 -1.647876 3.506088 -1.436239 -17.153505 10.993807 -7.129058 65.126060 0.579954 -11.741377 17.136028 0.008724 -11.190997 3.124859 6.928288 -19.956217 2.146422 2.543217 19.861673 -4.614768 4.867815 -1.945962 
-0.762955 50.691422 3.302440 -2.900076 -8.463195 6.406566 0.000000 0.000000 0.000000 -5.238972 7.347550 -8.674707 0.755999 3.673144 -7.065002 24.571220 -4.910185 -1.608222 14.086907 12.520368 24.905529 -88.775230 -34.409348 53.066746 -7.905906 -7.153016 9.294795 -14.776669 -7.843950 0.361057 -19.368340 -1.587354 16.035564 82.308174 21.375053 24.356619 -0.069022 -7.870976 16.051096 -1.998910 3.408714 -1.474272 -19.273928 10.818930 -7.154260 66.716652 0.950412 -11.183003 15.530499 -0.096729 -9.852683 3.388332 7.224277 -20.090519 1.723003 2.512477 19.965265 -4.630771 4.894941 -2.220077 
